<svg xmlns="http://www.w3.org/2000/svg" viewBox="0 0 16 16" shape-rendering="crispEdges">
  <!-- Antennas: two tips at row 1, diagonal in at row 2, meet at row 3 -->
  <rect x="5" y="1" width="1" height="1" fill="#b5cea8"/>
  <rect x="10" y="1" width="1" height="1" fill="#b5cea8"/>
  <rect x="6" y="2" width="1" height="1" fill="#b5cea8"/>
  <rect x="9" y="2" width="1" height="1" fill="#b5cea8"/>
  <rect x="6" y="3" width="4" height="1" fill="#b5cea8"/>

  <!-- Head (rows 4-5, cols 5-10) -->
  <rect x="5" y="4" width="6" height="2" fill="#b5cea8"/>
  <!-- Eyes -->
  <rect x="6" y="5" width="1" height="1" fill="#1e2a1e"/>
  <rect x="9" y="5" width="1" height="1" fill="#1e2a1e"/>

  <!-- Body (rows 6-11, cols 5-10) -->
  <rect x="5" y="6" width="6" height="6" fill="#b5cea8"/>
  <!-- Wing-split centre stripe -->
  <rect x="7" y="6" width="2" height="6" fill="#8aaa7e"/>

  <!-- Left top leg (angled up: body → row 5 → row 4 tip) -->
  <rect x="4" y="6" width="1" height="1" fill="#b5cea8"/>
  <rect x="3" y="5" width="1" height="1" fill="#b5cea8"/>
  <rect x="1" y="4" width="2" height="1" fill="#b5cea8"/>

  <!-- Right top leg (angled up, mirrored) -->
  <rect x="11" y="6" width="1" height="1" fill="#b5cea8"/>
  <rect x="12" y="5" width="1" height="1" fill="#b5cea8"/>
  <rect x="13" y="4" width="2" height="1" fill="#b5cea8"/>

  <!-- Left middle leg (horizontal) -->
  <rect x="1" y="8" width="4" height="1" fill="#b5cea8"/>

  <!-- Right middle leg (horizontal) -->
  <rect x="11" y="8" width="4" height="1" fill="#b5cea8"/>

  <!-- Left bottom leg (angled down: body → row 11 → row 12 tip) -->
  <rect x="4" y="10" width="1" height="1" fill="#b5cea8"/>
  <rect x="3" y="11" width="1" height="1" fill="#b5cea8"/>
  <rect x="1" y="12" width="2" height="1" fill="#b5cea8"/>

  <!-- Right bottom leg (angled down, mirrored) -->
  <rect x="11" y="10" width="1" height="1" fill="#b5cea8"/>
  <rect x="12" y="11" width="1" height="1" fill="#b5cea8"/>
  <rect x="13" y="12" width="2" height="1" fill="#b5cea8"/>

  <!-- Tail: narrowing point -->
  <rect x="6" y="12" width="4" height="1" fill="#b5cea8"/>
  <rect x="7" y="13" width="2" height="1" fill="#b5cea8"/>
</svg>
